#N canvas 530 144 815 629 10;
#X obj 200 219 spatdif;
#X msg 345 76 /spatdifcmd/setPosition myEntity 0 0.5 2;
#X obj 199 343 print;
#X msg 239 286 done.;
#X msg 433 323 /spatdifcmd/getPosition myEntity;
#X msg 13 117 /spatdifcmd/getQueryTime;
#X msg 21 146 /spatdifcmd/getWriteTime;
#X msg 31 32 /spatdifcmd/setWriteTime 5;
#X msg 477 399 /spatdifcmd/getOrientation myEntity;
#X msg 412 265 /spatdifcmd/getNumberOfEntities;
#X text 396 212 get commands;
#X text 329 26 set commands;
#X msg 362 101 /spatdifcmd/setOrientation myEntity 3 2 1;
#X msg 487 519 /spatdifcmd/getPresent myEntity;
#X msg 58 237 dump;
#X msg 382 130 /spatdifcmd/setPresent myEntity true;
#X msg 492 541 /spatdifcmd/getNumberOfEntities;
#X msg 401 244 /spatdifcmd/getOrdering;
#X msg 329 50 /spatdifcmd/setOrdering time;
#X msg 424 288 /spatdifcmd/getEntityNames;
#X msg 497 564 /spatdifcmd/getEntityNames;
#X msg 396 161 /spatdifcmd/setPosition yourEntity 1 2.5 3;
#X msg 64 405 /spatdifcmd/addEntity hisEntity;
#X msg 73 441 /spatdifcmd/removeEntity hisEntity;
#X msg 106 478 /spatdifcmd/removeAllEntities;
#X msg 446 344 /spatdifcmd/getNextPosition myEntity;
#X msg 461 364 /spatdifcmd/getPreviousPosition myEntity;
#X msg 498 419 /spatdifcmd/getNextOrientation myEntity;
#X msg 515 440 /spatdifcmd/getPreviousOrientation myEntity;
#X msg 35 60 /spatdifcmd/setQueryTime 10;
#X connect 0 0 2 0;
#X connect 0 1 3 0;
#X connect 1 0 0 0;
#X connect 3 0 2 0;
#X connect 4 0 0 0;
#X connect 5 0 0 0;
#X connect 6 0 0 0;
#X connect 7 0 0 0;
#X connect 8 0 0 0;
#X connect 9 0 0 0;
#X connect 12 0 0 0;
#X connect 13 0 0 0;
#X connect 14 0 0 0;
#X connect 15 0 0 0;
#X connect 16 0 0 0;
#X connect 17 0 0 0;
#X connect 18 0 0 0;
#X connect 19 0 0 0;
#X connect 20 0 0 0;
#X connect 21 0 0 0;
#X connect 22 0 0 0;
#X connect 23 0 0 0;
#X connect 24 0 0 0;
#X connect 25 0 0 0;
#X connect 26 0 0 0;
#X connect 27 0 0 0;
#X connect 28 0 0 0;
#X connect 29 0 0 0;
