#N canvas 350 111 1007 815 10;
#X obj 176 261 spatdif;
#X obj 77 151 openpanel;
#X obj 77 232 savepanel;
#X msg 77 257 save \$1;
#X obj 77 128 bng 15 250 50 0 empty empty empty 17 7 0 10 -262144 -1
-1;
#X obj 77 209 bng 15 250 50 0 empty empty empty 17 7 0 10 -262144 -1
-1;
#X msg 79 298 dump;
#X floatatom 62 527 5 0 0 0 x - -;
#X floatatom 115 526 5 0 0 0 y - -;
#X floatatom 168 526 5 0 0 0 z - -;
#X obj 177 378 route insect;
#X obj 62 481 unpack 0 0 0;
#X msg 597 414 /spatdifcmd/setQueryTimeToNextEvent \, /spatdifcmd/getEventSetsFromAllEntities
\, /spatdifcmd/getDeltaTimeToNextEvent;
#X msg 77 175 load \$1;
#X msg 312 518 set \$1;
#X obj 312 494 symbol;
#X msg 358 518 set \$1;
#X obj 358 494 symbol;
#X msg 228 641 set \$1;
#X obj 228 617 symbol;
#X msg 228 672 turenas_insect_reconstructed.aiff;
#X obj 67 28 cnv 15 100 60 empty empty spatdif 20 12 0 32 -262144 -66577
0;
#X text 246 39 load \, store \, playback \, and record spatdif scenes
;
#N canvas 862 195 450 300 meta_data 0;
#X msg 10 68 /spatdifcmd/getQueryTime;
#X msg 190 72 /spatdifcmd/getInterval;
#X msg 14 125 /spatdifcmd/setWriteTime 3;
#X msg 189 47 /spatdifcmd/setInterval 1;
#X msg 10 43 /spatdifcmd/setQueryTime 0;
#X msg 21 146 /spatdifcmd/getWriteTime;
#X obj 237 164 s toSpatDIF;
#X connect 0 0 6 0;
#X connect 1 0 6 0;
#X connect 2 0 6 0;
#X connect 3 0 6 0;
#X connect 4 0 6 0;
#X connect 5 0 6 0;
#X restore 262 86 pd meta_data;
#X text 404 81 access meta data section and general information of
SpatDIF scene;
#X text 406 124 access core descriptors of entities;
#X text 405 149 get/set operation variables;
#N canvas 117 200 770 591 core_descriptors 0;
#X msg 64 68 /spatdifcmd/setPosition myEntity 0 0.5 2;
#X msg 81 93 /spatdifcmd/setOrientation myEntity 3 2 1;
#X msg 101 122 /spatdifcmd/setPresent myEntity true;
#X msg 115 153 /spatdifcmd/setPosition yourEntity 1 2.5 3;
#X msg 84 303 /spatdifcmd/getPosition myEntity;
#X msg 97 324 /spatdifcmd/getNextPosition myEntity;
#X msg 112 344 /spatdifcmd/getPreviousPosition myEntity;
#X msg 123 382 /spatdifcmd/getOrientation myEntity;
#X msg 165 458 /spatdifcmd/getPresent myEntity;
#X msg 170 480 /spatdifcmd/getNumberOfEntities;
#X msg 175 503 /spatdifcmd/getEntityNames;
#X msg 144 402 /spatdifcmd/getNextOrientation myEntity;
#X msg 161 423 /spatdifcmd/getPreviousOrientation myEntity;
#X obj 60 222 s toSpatDIF;
#X obj 49 491 s toSpatDIF;
#X connect 0 0 13 0;
#X connect 1 0 13 0;
#X connect 2 0 13 0;
#X connect 3 0 13 0;
#X connect 4 0 14 0;
#X connect 5 0 14 0;
#X connect 6 0 14 0;
#X connect 7 0 14 0;
#X connect 8 0 14 0;
#X connect 9 0 14 0;
#X connect 10 0 14 0;
#X connect 11 0 14 0;
#X connect 12 0 14 0;
#X restore 260 120 pd core_descriptors;
#N canvas -4 315 766 595 operating_variable 0;
#X msg 141 160 /spatdifcmd/setAnnotation Test;
#X msg 138 76 /spatdifcmd/setDate 2014-4-7;
#X msg 404 30 /spatdifcmd/getAuthor;
#X msg 404 56 /spatdifcmd/getDate;
#X msg 404 160 /spatdifcmd/getHost;
#X msg 404 82 /spatdifcmd/getLocation;
#X msg 404 108 /spatdifcmd/getAnnotation;
#X msg 404 134 /spatdifcmd/getSession;
#X msg 142 216 /spatdifcmd/setOrdering time;
#X msg 404 186 /spatdifcmd/getOrdering;
#X msg 136 53 /spatdifcmd/setAuthor Chikashi;
#X msg 404 212 /spatdifcmd/getNumberOfEntities;
#X msg 404 238 /spatdifcmd/getEntityNames;
#X msg 139 394 /spatdifcmd/addEntity hisEntity;
#X msg 139 428 /spatdifcmd/removeEntity hisEntity;
#X msg 139 462 /spatdifcmd/removeAllEntities;
#X text 32 357 Entity Management;
#X text 30 130 Meta data;
#X msg 139 102 /spatdifcmd/setHost host;
#X msg 141 130 /spatdifcmd/setLocation Tokyo;
#X msg 142 186 /spatdifcmd/setSession v2.3;
#X obj 333 286 s toSpatDIF;
#X obj 81 271 s toSpatDIF;
#X obj 91 506 s toSpatDIF;
#X connect 0 0 22 0;
#X connect 1 0 22 0;
#X connect 2 0 21 0;
#X connect 3 0 21 0;
#X connect 4 0 21 0;
#X connect 5 0 21 0;
#X connect 6 0 21 0;
#X connect 7 0 21 0;
#X connect 8 0 22 0;
#X connect 9 0 21 0;
#X connect 10 0 22 0;
#X connect 11 0 21 0;
#X connect 12 0 21 0;
#X connect 13 0 23 0;
#X connect 14 0 23 0;
#X connect 15 0 23 0;
#X connect 18 0 22 0;
#X connect 19 0 22 0;
#X connect 20 0 22 0;
#X restore 260 149 pd operating_variable;
#X obj 176 348 route source;
#X obj 62 446 route position;
#X obj 227 414 route media;
#X obj 312 461 route id type channel;
#X floatatom 394 598 5 0 0 0 - - -;
#X obj 228 587 route location;
#X text 308 413 extension;
#X text 449 459 descriptor;
#X obj 597 276 route deltaTime;
#N canvas 697 505 183 251 deltafileter 0;
#X obj 55 31 inlet;
#X obj 37 168 outlet;
#X obj 50 66 t f f;
#X obj 44 118 gate;
#X obj 104 91 >= 0;
#X connect 0 0 2 0;
#X connect 2 0 3 1;
#X connect 2 1 4 0;
#X connect 3 0 1 0;
#X connect 4 0 3 0;
#X restore 597 299 pd deltafileter;
#X msg 612 227 /spatdifcmd/setQueryTime -0.1 \, /spatdifcmd/getDeltaTimeToNextEvent
;
#X text 607 203 start the playback;
#X floatatom 597 323 5 0 0 1 delta_time - -;
#X obj 597 343 * 1000;
#X obj 597 368 t b f;
#X obj 597 391 delay;
#X msg 732 353 stop;
#X text 769 353 stop the playback;
#X obj 519 531 route author date host location annotation session ordering
;
#X obj 176 211 r toSpatDIF;
#X obj 597 466 s toSpatDIF;
#X obj 176 290 s fromSpatDIF;
#X obj 177 320 r fromSpatDIF;
#X obj 519 502 r fromSpatDIF;
#X msg 519 586 set \$1;
#X obj 519 562 symbol;
#X msg 519 617 jasch;
#X msg 569 586 set \$1;
#X obj 569 562 symbol;
#X msg 569 637 2013-10-17;
#X msg 620 586 set \$1;
#X obj 620 562 symbol;
#X msg 620 656 ;
#X msg 670 586 set \$1;
#X obj 670 562 symbol;
#X msg 670 677 ;
#X msg 718 586 set \$1;
#X obj 718 562 symbol;
#X msg 718 698 the turenas insect trajectory;
#X msg 769 586 set \$1;
#X obj 769 562 symbol;
#X msg 769 717 ;
#X msg 819 586 set \$1;
#X obj 819 562 symbol;
#X msg 819 735 time;
#X msg 312 555 sound_0001;
#X msg 358 575 file;
#X obj 309 359 print;
#X connect 0 0 37 0;
#X connect 0 0 50 0;
#X connect 1 0 13 0;
#X connect 2 0 3 0;
#X connect 3 0 0 0;
#X connect 4 0 1 0;
#X connect 5 0 2 0;
#X connect 6 0 0 0;
#X connect 10 0 30 0;
#X connect 10 0 31 0;
#X connect 11 0 7 0;
#X connect 11 1 8 0;
#X connect 11 2 9 0;
#X connect 12 0 49 0;
#X connect 13 0 0 0;
#X connect 14 0 74 0;
#X connect 15 0 14 0;
#X connect 16 0 75 0;
#X connect 17 0 16 0;
#X connect 18 0 20 0;
#X connect 19 0 18 0;
#X connect 29 0 10 0;
#X connect 30 0 11 0;
#X connect 31 0 32 0;
#X connect 31 0 34 0;
#X connect 32 0 15 0;
#X connect 32 1 17 0;
#X connect 32 2 33 0;
#X connect 34 0 19 0;
#X connect 37 0 38 0;
#X connect 38 0 41 0;
#X connect 39 0 0 0;
#X connect 41 0 42 0;
#X connect 42 0 43 0;
#X connect 43 0 44 0;
#X connect 43 1 44 1;
#X connect 44 0 12 0;
#X connect 45 0 43 0;
#X connect 47 0 54 0;
#X connect 47 1 57 0;
#X connect 47 2 60 0;
#X connect 47 3 63 0;
#X connect 47 4 66 0;
#X connect 47 5 69 0;
#X connect 47 6 72 0;
#X connect 48 0 0 0;
#X connect 51 0 29 0;
#X connect 51 0 76 0;
#X connect 52 0 47 0;
#X connect 53 0 55 0;
#X connect 54 0 53 0;
#X connect 56 0 58 0;
#X connect 57 0 56 0;
#X connect 59 0 61 0;
#X connect 60 0 59 0;
#X connect 62 0 64 0;
#X connect 63 0 62 0;
#X connect 65 0 67 0;
#X connect 66 0 65 0;
#X connect 68 0 70 0;
#X connect 69 0 68 0;
#X connect 71 0 73 0;
#X connect 72 0 71 0;
