#N canvas 300 22 910 681 10;
#X obj 145 277 spatdif;
#X obj 144 401 print;
#X msg 184 344 done.;
#X obj 55 176 openpanel;
#X obj 54 268 savepanel;
#X msg 54 293 save \$1;
#X obj 55 153 bng 15 250 50 0 empty empty empty 17 7 0 10 -262144 -1
-1;
#X obj 54 245 bng 15 250 50 0 empty empty empty 17 7 0 10 -262144 -1
-1;
#X msg 55 201 load \$1;
#X msg 145 207 dump;
#X obj 261 192 bng 15 250 50 0 empty empty empty 17 7 0 10 -262144
-1 -1;
#X obj 180 198 r tospatdif;
#N canvas 364 73 770 591 core_descriptors 0;
#X msg 64 68 /spatdifcmd/setPosition myEntity 0 0.5 2;
#X msg 81 93 /spatdifcmd/setOrientation myEntity 3 2 1;
#X msg 101 122 /spatdifcmd/setPresent myEntity true;
#X msg 115 153 /spatdifcmd/setPosition yourEntity 1 2.5 3;
#X obj 60 222 s tospatdif;
#X msg 84 303 /spatdifcmd/getPosition myEntity;
#X msg 97 324 /spatdifcmd/getNextPosition myEntity;
#X msg 112 344 /spatdifcmd/getPreviousPosition myEntity;
#X obj 49 491 s tospatdif;
#X msg 123 382 /spatdifcmd/getOrientation myEntity;
#X msg 165 458 /spatdifcmd/getPresent myEntity;
#X msg 170 480 /spatdifcmd/getNumberOfEntities;
#X msg 175 503 /spatdifcmd/getEntityNames;
#X msg 144 402 /spatdifcmd/getNextOrientation myEntity;
#X msg 161 423 /spatdifcmd/getPreviousOrientation myEntity;
#X connect 0 0 4 0;
#X connect 1 0 4 0;
#X connect 2 0 4 0;
#X connect 3 0 4 0;
#X connect 5 0 8 0;
#X connect 6 0 8 0;
#X connect 7 0 8 0;
#X connect 9 0 8 0;
#X connect 10 0 8 0;
#X connect 11 0 8 0;
#X connect 12 0 8 0;
#X connect 13 0 8 0;
#X connect 14 0 8 0;
#X restore 228 91 pd core_descriptors;
#X text 367 50 How to access meta data section and general info mation
of a SpatDIF scene;
#X text 364 91 How to access core descriptors of entities;
#N canvas 862 195 450 300 internal_variables 0;
#X msg 10 68 /spatdifcmd/getQueryTime;
#X msg 21 146 /spatdifcmd/getWriteTime;
#X msg 190 72 /spatdifcmd/getInterval;
#X msg 14 125 /spatdifcmd/setWriteTime 3;
#X msg 189 47 /spatdifcmd/setInterval 1;
#X msg 10 43 /spatdifcmd/setQueryTime 0;
#X obj 237 164 s tospatdif;
#X connect 0 0 6 0;
#X connect 1 0 6 0;
#X connect 2 0 6 0;
#X connect 3 0 6 0;
#X connect 4 0 6 0;
#X connect 5 0 6 0;
#X restore 229 22 pd internal_variables;
#X text 367 20 get/set internal variables;
#N canvas 428 52 746 807 scenedata 0;
#X obj 22 246 s tospatdif;
#X msg 82 135 /spatdifcmd/setAnnotation Test;
#X msg 79 51 /spatdifcmd/setDate 2014-4-7;
#X msg 82 105 /spatdifcmd/setLocationTokyo;
#X msg 80 77 /spatdifcmd/setHost host;
#X msg 345 5 /spatdifcmd/getAuthor;
#X msg 345 31 /spatdifcmd/getDate;
#X msg 345 135 /spatdifcmd/getHost;
#X msg 345 57 /spatdifcmd/getLocation;
#X msg 345 83 /spatdifcmd/getAnnotation;
#X msg 345 109 /spatdifcmd/getSession;
#X obj 274 261 s tospatdif;
#X msg 83 161 /spatdifcmd/setSession v2.3;
#X msg 83 191 /spatdifcmd/setOrdering time;
#X msg 345 161 /spatdifcmd/getOrdering;
#X msg 77 28 /spatdifcmd/setAuthor Chikashi;
#X msg 345 187 /spatdifcmd/getNumberOfEntities;
#X msg 345 213 /spatdifcmd/getEntityNames;
#X msg 141 369 /spatdifcmd/addEntity hisEntity;
#X msg 141 403 /spatdifcmd/removeEntity hisEntity;
#X msg 141 437 /spatdifcmd/removeAllEntities;
#X obj 93 481 s tospatdif;
#X text -3 367 Entity Management;
#X text -37 127 Meta data;
#X connect 1 0 0 0;
#X connect 2 0 0 0;
#X connect 3 0 0 0;
#X connect 4 0 0 0;
#X connect 5 0 11 0;
#X connect 6 0 11 0;
#X connect 7 0 11 0;
#X connect 8 0 11 0;
#X connect 9 0 11 0;
#X connect 10 0 11 0;
#X connect 12 0 0 0;
#X connect 13 0 0 0;
#X connect 14 0 11 0;
#X connect 15 0 0 0;
#X connect 16 0 11 0;
#X connect 17 0 11 0;
#X connect 18 0 21 0;
#X connect 19 0 21 0;
#X connect 20 0 21 0;
#X restore 227 57 pd scenedata;
#X text 51 71 read/write scene;
#X text 340 159 bang outputs all events between querytime and querytime
+ interval and update querytime by adding interval;
#X floatatom 371 421 5 0 0 0 x - -;
#X floatatom 424 420 5 0 0 0 y - -;
#X floatatom 472 421 5 0 0 0 z - -;
#X floatatom 614 355 5 0 0 0 current_queryTime - -;
#X msg 464 239 /spatdifcmd/setQueryTime 0 \, /spatdifcmd/setInterval
0.01;
#X obj 464 215 loadbang;
#X obj 260 170 metro 10;
#X obj 257 139 tgl 15 0 empty empty empty 17 7 0 10 -262144 -1 -1 0
1;
#X obj 262 211 t b b;
#X msg 272 239 /spatdifcmd/getQueryTime;
#X obj 332 347 route position;
#X obj 433 283 route source queryTime;
#X obj 329 321 route insect;
#X obj 337 375 unpack 0 0 0 0;
#X floatatom 310 421 5 0 0 0 time - -;
#X obj 437 475 vsl 15 128 -10 10 0 0 empty empty empty 0 -9 0 10 -262144
-1 -1 2540 1;
#X obj 302 588 hsl 128 15 -10 10 0 0 empty empty empty -2 -8 0 10 -262144
-1 -1 6350 1;
#X connect 0 0 1 0;
#X connect 0 0 31 0;
#X connect 0 1 2 0;
#X connect 2 0 1 0;
#X connect 3 0 8 0;
#X connect 4 0 5 0;
#X connect 5 0 0 0;
#X connect 6 0 3 0;
#X connect 7 0 4 0;
#X connect 8 0 0 0;
#X connect 9 0 0 0;
#X connect 10 0 28 0;
#X connect 11 0 0 0;
#X connect 20 0 36 0;
#X connect 21 0 35 0;
#X connect 24 0 0 0;
#X connect 25 0 24 0;
#X connect 26 0 10 0;
#X connect 27 0 26 0;
#X connect 28 0 0 0;
#X connect 28 1 29 0;
#X connect 29 0 0 0;
#X connect 30 0 33 0;
#X connect 31 0 32 0;
#X connect 31 1 23 0;
#X connect 32 0 30 0;
#X connect 33 0 34 0;
#X connect 33 1 20 0;
#X connect 33 2 21 0;
#X connect 33 3 22 0;
