#N canvas 566 124 848 812 10;
#X obj 176 342 spatdif;
#X obj 176 441 print;
#X msg 215 409 done.;
#X obj 77 151 openpanel;
#X obj 77 232 savepanel;
#X msg 77 257 save \$1;
#X obj 77 128 bng 15 250 50 0 empty empty empty 17 7 0 10 -262144 -1
-1;
#X obj 77 209 bng 15 250 50 0 empty empty empty 17 7 0 10 -262144 -1
-1;
#X msg 79 298 dump;
#X obj 176 211 r tospatdif;
#N canvas 797 89 770 591 core_descriptors 0;
#X msg 64 68 /spatdifcmd/setPosition myEntity 0 0.5 2;
#X msg 81 93 /spatdifcmd/setOrientation myEntity 3 2 1;
#X msg 101 122 /spatdifcmd/setPresent myEntity true;
#X msg 115 153 /spatdifcmd/setPosition yourEntity 1 2.5 3;
#X obj 60 222 s tospatdif;
#X msg 84 303 /spatdifcmd/getPosition myEntity;
#X msg 97 324 /spatdifcmd/getNextPosition myEntity;
#X msg 112 344 /spatdifcmd/getPreviousPosition myEntity;
#X obj 49 491 s tospatdif;
#X msg 123 382 /spatdifcmd/getOrientation myEntity;
#X msg 165 458 /spatdifcmd/getPresent myEntity;
#X msg 170 480 /spatdifcmd/getNumberOfEntities;
#X msg 175 503 /spatdifcmd/getEntityNames;
#X msg 144 402 /spatdifcmd/getNextOrientation myEntity;
#X msg 161 423 /spatdifcmd/getPreviousOrientation myEntity;
#X connect 0 0 4 0;
#X connect 1 0 4 0;
#X connect 2 0 4 0;
#X connect 3 0 4 0;
#X connect 5 0 8 0;
#X connect 6 0 8 0;
#X connect 7 0 8 0;
#X connect 9 0 8 0;
#X connect 10 0 8 0;
#X connect 11 0 8 0;
#X connect 12 0 8 0;
#X connect 13 0 8 0;
#X connect 14 0 8 0;
#X restore 259 156 pd core_descriptors;
#X text 398 115 How to access meta data section and general info mation
of a SpatDIF scene;
#X text 395 156 How to access core descriptors of entities;
#N canvas 862 195 450 300 internal_variables 0;
#X msg 10 68 /spatdifcmd/getQueryTime;
#X msg 190 72 /spatdifcmd/getInterval;
#X msg 14 125 /spatdifcmd/setWriteTime 3;
#X msg 189 47 /spatdifcmd/setInterval 1;
#X msg 10 43 /spatdifcmd/setQueryTime 0;
#X obj 237 164 s tospatdif;
#X msg 21 146 /spatdifcmd/getWriteTime;
#X connect 0 0 5 0;
#X connect 1 0 5 0;
#X connect 2 0 5 0;
#X connect 3 0 5 0;
#X connect 4 0 5 0;
#X connect 6 0 5 0;
#X restore 260 87 pd internal_variables;
#X text 398 85 get/set internal variables;
#N canvas 942 161 746 807 scenedata 0;
#X obj 22 246 s tospatdif;
#X msg 82 135 /spatdifcmd/setAnnotation Test;
#X msg 79 51 /spatdifcmd/setDate 2014-4-7;
#X msg 345 5 /spatdifcmd/getAuthor;
#X msg 345 31 /spatdifcmd/getDate;
#X msg 345 135 /spatdifcmd/getHost;
#X msg 345 57 /spatdifcmd/getLocation;
#X msg 345 83 /spatdifcmd/getAnnotation;
#X msg 345 109 /spatdifcmd/getSession;
#X obj 274 261 s tospatdif;
#X msg 83 191 /spatdifcmd/setOrdering time;
#X msg 345 161 /spatdifcmd/getOrdering;
#X msg 77 28 /spatdifcmd/setAuthor Chikashi;
#X msg 345 187 /spatdifcmd/getNumberOfEntities;
#X msg 345 213 /spatdifcmd/getEntityNames;
#X msg 141 369 /spatdifcmd/addEntity hisEntity;
#X msg 141 403 /spatdifcmd/removeEntity hisEntity;
#X msg 141 437 /spatdifcmd/removeAllEntities;
#X obj 93 481 s tospatdif;
#X text -3 367 Entity Management;
#X text -37 127 Meta data;
#X msg 80 77 /spatdifcmd/setHost host;
#X msg 82 105 /spatdifcmd/setLocation Tokyo;
#X msg 83 161 /spatdifcmd/setSession v2.3;
#X connect 1 0 0 0;
#X connect 2 0 0 0;
#X connect 3 0 9 0;
#X connect 4 0 9 0;
#X connect 5 0 9 0;
#X connect 6 0 9 0;
#X connect 7 0 9 0;
#X connect 8 0 9 0;
#X connect 10 0 0 0;
#X connect 11 0 9 0;
#X connect 12 0 0 0;
#X connect 13 0 9 0;
#X connect 14 0 9 0;
#X connect 15 0 18 0;
#X connect 16 0 18 0;
#X connect 17 0 18 0;
#X connect 21 0 0 0;
#X connect 22 0 0 0;
#X connect 23 0 0 0;
#X restore 258 122 pd scenedata;
#X floatatom 138 590 5 0 0 0 x - -;
#X floatatom 191 589 5 0 0 0 y - -;
#X floatatom 244 589 5 0 0 0 z - -;
#X obj 267 241 loadbang;
#X obj 286 434 route insect;
#X obj 191 622 vsl 15 128 -10 10 0 0 empty empty empty 0 -9 0 10 -262144
-1 -1 2540 1;
#X obj 141 767 hsl 128 15 -10 10 0 0 empty empty empty -2 -8 0 10 -262144
-1 -1 6350 1;
#X obj 138 544 unpack 0 0 0;
#X obj 244 621 vsl 15 128 -10 10 0 0 empty empty empty 0 -9 0 10 -262144
-1 -1 6350 1;
#X obj 468 502 * 1000;
#X obj 469 526 del;
#X obj 469 644 s tospatdif;
#X text 494 284 < ---- start the playback;
#X obj 428 437 moses 0;
#X msg 267 264 /spatdifcmd/setQueryTime -1;
#X obj 469 553 bng 15 250 50 0 empty empty empty 17 7 0 10 -262144
-1 -1;
#X floatatom 467 470 5 0 0 0 - - -;
#X obj 286 397 route source deltaTime;
#X msg 469 581 /spatdifcmd/setQueryTimeToNextEvent \, /spatdifcmd/getEventSetsFromAllEntities
\, /spatdifcmd/getDeltaTimeToNextEvent;
#X msg 267 286 /spatdifcmd/getDeltaTimeToNextEvent;
#X msg 77 175 load \$1;
#X msg 537 337 /spatdifcmd/setQueryTime 0 \, /spatdifcmd/getDeltaTimeToNextEvent
;
#X obj 537 374 s tospatdif;
#X text 538 313 v;
#X text 538 302 |;
#X obj 138 510 route position media;
#X obj 298 545 route id type location;
#X msg 299 633 sound_0001;
#X msg 299 596 set \$1;
#X obj 299 572 symbol;
#X msg 345 596 set \$1;
#X obj 345 572 symbol;
#X msg 346 661 file;
#X msg 394 596 set \$1;
#X obj 394 572 symbol;
#X msg 395 690 turenas_insect_reconstructed.aiff;
#X connect 0 0 1 0;
#X connect 0 0 33 0;
#X connect 0 1 2 0;
#X connect 2 0 1 0;
#X connect 3 0 36 0;
#X connect 4 0 5 0;
#X connect 5 0 0 0;
#X connect 6 0 3 0;
#X connect 7 0 4 0;
#X connect 8 0 0 0;
#X connect 9 0 0 0;
#X connect 16 0 22 0;
#X connect 17 0 21 0;
#X connect 18 0 24 0;
#X connect 19 0 30 0;
#X connect 20 0 41 0;
#X connect 23 0 16 0;
#X connect 23 1 17 0;
#X connect 23 2 18 0;
#X connect 25 0 26 0;
#X connect 26 0 31 0;
#X connect 29 1 32 0;
#X connect 30 0 0 0;
#X connect 31 0 34 0;
#X connect 32 0 25 0;
#X connect 33 0 20 0;
#X connect 33 1 29 0;
#X connect 34 0 27 0;
#X connect 35 0 0 0;
#X connect 36 0 0 0;
#X connect 37 0 38 0;
#X connect 41 0 23 0;
#X connect 41 1 42 0;
#X connect 42 0 45 0;
#X connect 42 1 47 0;
#X connect 42 2 50 0;
#X connect 44 0 43 0;
#X connect 45 0 44 0;
#X connect 46 0 48 0;
#X connect 47 0 46 0;
#X connect 49 0 51 0;
#X connect 50 0 49 0;
