#N canvas 2 22 1499 863 10;
#X obj 137 -1266 spatdif;
#X obj 38 -1347 openpanel;
#X obj 38 -1370 bng 15 250 50 0 empty empty empty 17 7 0 10 -262144
-1 -1;
#X msg 37 -1283 dump;
#X floatatom 23 -1000 5 0 0 0 x - -;
#X floatatom 76 -1001 5 0 0 0 y - -;
#X floatatom 129 -1001 5 0 0 0 z - -;
#X obj 138 -1149 route insect;
#X obj 23 -1046 unpack 0 0 0;
#X msg 495 -1112 /spatdifcmd/setQueryTimeToNextEvent \, /spatdifcmd/getEventSetsFromAllEntities
\, /spatdifcmd/getDeltaTimeToNextEvent;
#X msg 38 -1323 load \$1;
#X msg 239 -1030 set \$1;
#X obj 239 -1054 symbol;
#X msg 285 -1030 set \$1;
#X obj 285 -1054 symbol;
#X msg 219 -886 set \$1;
#X obj 219 -910 symbol;
#X msg 219 -855 turenas_insect_reconstructed.aiff;
#X obj 28 -1559 cnv 15 1000 50 empty empty spatdif 20 12 0 32 -249661
-1 0;
#X text 197 -1546 load \, store \, playback \, and record spatdif scenes
;
#N canvas 862 195 450 300 meta_data 0;
#X msg 10 68 /spatdifcmd/getQueryTime;
#X msg 190 72 /spatdifcmd/getInterval;
#X msg 14 125 /spatdifcmd/setWriteTime 3;
#X msg 189 47 /spatdifcmd/setInterval 1;
#X msg 10 43 /spatdifcmd/setQueryTime 0;
#X msg 21 146 /spatdifcmd/getWriteTime;
#X obj 237 164 s toSpatDIF;
#X connect 0 0 6 0;
#X connect 1 0 6 0;
#X connect 2 0 6 0;
#X connect 3 0 6 0;
#X connect 4 0 6 0;
#X connect 5 0 6 0;
#X restore 28 -1463 pd meta_data;
#X text 117 -1468 access meta data section and general information
of SpatDIF scene;
#X text 629 -1466 access core descriptors of entities;
#X text 1009 -1466 get/set operation variables;
#N canvas 117 200 770 591 core_descriptors 0;
#X msg 64 68 /spatdifcmd/setPosition myEntity 0 0.5 2;
#X msg 81 93 /spatdifcmd/setOrientation myEntity 3 2 1;
#X msg 101 122 /spatdifcmd/setPresent myEntity true;
#X msg 115 153 /spatdifcmd/setPosition yourEntity 1 2.5 3;
#X msg 84 303 /spatdifcmd/getPosition myEntity;
#X msg 97 324 /spatdifcmd/getNextPosition myEntity;
#X msg 112 344 /spatdifcmd/getPreviousPosition myEntity;
#X msg 123 382 /spatdifcmd/getOrientation myEntity;
#X msg 165 458 /spatdifcmd/getPresent myEntity;
#X msg 170 480 /spatdifcmd/getNumberOfEntities;
#X msg 175 503 /spatdifcmd/getEntityNames;
#X msg 144 402 /spatdifcmd/getNextOrientation myEntity;
#X msg 161 423 /spatdifcmd/getPreviousOrientation myEntity;
#X obj 60 222 s toSpatDIF;
#X obj 49 491 s toSpatDIF;
#X connect 0 0 13 0;
#X connect 1 0 13 0;
#X connect 2 0 13 0;
#X connect 3 0 13 0;
#X connect 4 0 14 0;
#X connect 5 0 14 0;
#X connect 6 0 14 0;
#X connect 7 0 14 0;
#X connect 8 0 14 0;
#X connect 9 0 14 0;
#X connect 10 0 14 0;
#X connect 11 0 14 0;
#X connect 12 0 14 0;
#X restore 502 -1467 pd core_descriptors;
#N canvas 0 315 766 595 operating_variable 0;
#X msg 141 160 /spatdifcmd/setAnnotation Test;
#X msg 138 76 /spatdifcmd/setDate 2014-4-7;
#X msg 404 30 /spatdifcmd/getAuthor;
#X msg 404 56 /spatdifcmd/getDate;
#X msg 404 160 /spatdifcmd/getHost;
#X msg 404 82 /spatdifcmd/getLocation;
#X msg 404 108 /spatdifcmd/getAnnotation;
#X msg 404 134 /spatdifcmd/getSession;
#X msg 142 216 /spatdifcmd/setOrdering time;
#X msg 404 186 /spatdifcmd/getOrdering;
#X msg 136 53 /spatdifcmd/setAuthor Chikashi;
#X msg 404 212 /spatdifcmd/getNumberOfEntities;
#X msg 404 238 /spatdifcmd/getEntityNames;
#X msg 139 394 /spatdifcmd/addEntity hisEntity;
#X msg 139 428 /spatdifcmd/removeEntity hisEntity;
#X msg 139 462 /spatdifcmd/removeAllEntities;
#X text 32 357 Entity Management;
#X text 30 130 Meta data;
#X msg 139 102 /spatdifcmd/setHost host;
#X msg 141 130 /spatdifcmd/setLocation Tokyo;
#X msg 142 186 /spatdifcmd/setSession v2.3;
#X obj 333 286 s toSpatDIF;
#X obj 81 271 s toSpatDIF;
#X obj 91 506 s toSpatDIF;
#X connect 0 0 22 0;
#X connect 1 0 22 0;
#X connect 2 0 21 0;
#X connect 3 0 21 0;
#X connect 4 0 21 0;
#X connect 5 0 21 0;
#X connect 6 0 21 0;
#X connect 7 0 21 0;
#X connect 8 0 22 0;
#X connect 9 0 21 0;
#X connect 10 0 22 0;
#X connect 11 0 21 0;
#X connect 12 0 21 0;
#X connect 13 0 23 0;
#X connect 14 0 23 0;
#X connect 15 0 23 0;
#X connect 18 0 22 0;
#X connect 19 0 22 0;
#X connect 20 0 22 0;
#X restore 871 -1466 pd operating_variable;
#X obj 137 -1179 route source;
#X obj 23 -1081 route position;
#X obj 218 -1113 route media;
#X obj 239 -1077 route id type channel;
#X floatatom 321 -973 5 0 0 0 - - -;
#X obj 219 -934 route location;
#X text 303 -1114 extension;
#X text 376 -1079 descriptor;
#X obj 495 -1249 route deltaTime;
#N canvas 697 505 183 251 deltafileter 0;
#X obj 55 31 inlet;
#X obj 37 168 outlet;
#X obj 50 66 t f f;
#X obj 44 118 gate;
#X obj 104 91 >= 0;
#X connect 0 0 2 0;
#X connect 2 0 3 1;
#X connect 2 1 4 0;
#X connect 3 0 1 0;
#X connect 4 0 3 0;
#X restore 495 -1226 pd deltafileter;
#X msg 495 -1296 /spatdifcmd/setQueryTime -0.1 \, /spatdifcmd/getDeltaTimeToNextEvent
;
#X text 495 -1317 start the playback;
#X floatatom 495 -1203 5 0 0 1 delta_time - -;
#X obj 495 -1181 * 1000;
#X obj 495 -1158 t b f;
#X obj 495 -1135 delay;
#X msg 633 -1175 stop;
#X text 670 -1175 stop the playback;
#X obj 420 -996 route author date host location annotation session
ordering;
#X obj 137 -1316 r toSpatDIF;
#X obj 495 -1063 s toSpatDIF;
#X obj 137 -1237 s fromSpatDIF;
#X obj 138 -1207 r fromSpatDIF;
#X obj 420 -1025 r fromSpatDIF;
#X msg 420 -941 set \$1;
#X obj 420 -965 symbol;
#X msg 420 -910 jasch;
#X msg 470 -941 set \$1;
#X obj 470 -965 symbol;
#X msg 470 -890 2013-10-17;
#X msg 521 -941 set \$1;
#X obj 521 -965 symbol;
#X msg 521 -871;
#X msg 571 -941 set \$1;
#X obj 571 -965 symbol;
#X msg 571 -850;
#X msg 619 -941 set \$1;
#X obj 619 -965 symbol;
#X msg 619 -829 the turenas insect trajectory;
#X msg 670 -941 set \$1;
#X obj 670 -965 symbol;
#X msg 670 -810;
#X msg 720 -941 set \$1;
#X obj 720 -965 symbol;
#X msg 720 -792 time;
#X msg 239 -1008 sound_0001;
#X msg 285 -986 file;
#X obj 90 -1179 print;
#X text 228 -1179 entity type;
#X text 224 -1150 entity name;
#X text 120 -1081 core descriptor;
#X text 313 -935 descriptor;
#N canvas 1003 614 450 300 keyboard_input 0;
#X obj 134 47 key;
#X obj 134 85 select 49 50 51 52 114 32;
#X obj 131 131 t b;
#X obj 161 131 t b;
#X obj 191 131 t b;
#X obj 221 131 t b;
#X obj 251 131 t b;
#X obj 130 186 outlet;
#X obj 160 206 outlet;
#X obj 190 226 outlet;
#X obj 220 246 outlet;
#X obj 250 266 outlet;
#X connect 0 0 1 0;
#X connect 1 0 2 0;
#X connect 1 1 3 0;
#X connect 1 2 4 0;
#X connect 1 3 5 0;
#X connect 1 4 6 0;
#X connect 1 5 6 0;
#X connect 2 0 7 0;
#X connect 3 0 8 0;
#X connect 4 0 9 0;
#X connect 5 0 10 0;
#X connect 6 0 11 0;
#X restore 899 -1175 pd keyboard_input;
#X obj 1021 -1158 tgl 15 0 empty empty empty 17 7 0 10 -262144 -1 -1
0 1;
#X obj 1111 -1158 tgl 15 0 empty empty empty 17 7 0 10 -262144 -1 -1
0 1;
#X obj 1201 -1158 tgl 15 0 empty empty empty 17 7 0 10 -262144 -1 -1
0 1;
#X obj 1291 -1158 tgl 15 0 empty empty empty 17 7 0 10 -262144 -1 -1
0 1;
#X obj 1049 -943 cputime;
#X msg 1049 -874 /spatdifcmd/setWriteTime \$1;
#X obj 1049 -919 * 0.001;
#X obj 1049 -895 nbx 5 14 -1e+37 1e+37 0 0 empty empty empty 0 -8 0
10 -262144 -1 -1 0 256;
#X obj 1021 -799 spatdif;
#N canvas 0 22 940 638 resetEntites 1;
#X obj 270 111 inlet;
#X obj 270 270 outlet;
#X msg 297 183 /spatdifcmd/removeAllEntities;
#X msg 270 208 /spatdifcmd/addEntity voice1 \, /spatdifcmd/addEntity
voice2 \, /spatdifcmd/addEntity voice3 \, /spatdifcmd/addEntity voice4
;
#X obj 270 144 t b b;
#X connect 0 0 4 0;
#X connect 2 0 1 0;
#X connect 3 0 1 0;
#X connect 4 0 3 0;
#X connect 4 1 2 0;
#X restore 1286 -851 pd resetEntites;
#N canvas 0 22 586 201 initialise_entities 1;
#X obj 117 179 outlet;
#X msg 89 58 /spatdifcmd/addExtension media;
#X msg 117 85 /spatdifcmd/addEntity voice1 \, /spatdifcmd/addEntity
voice2 \, /spatdifcmd/addEntity voice3 \, /spatdifcmd/addEntity voice4
;
#X obj 98 29 loadbang;
#X connect 1 0 0 0;
#X connect 2 0 0 0;
#X connect 3 0 1 0;
#X connect 3 0 2 0;
#X restore 1286 -827 pd initialise_entities;
#X obj 1286 -870 bng 15 250 50 0 empty empty empty 17 7 0 10 -262144
-1 -1;
#X text 1315 -873 reset all entities;
#N canvas 0 22 1330 795 select_file 0;
#X obj 255 66 openpanel;
#X obj 255 43 bng 15 250 50 0 empty empty empty 17 7 0 10 -262144 -1
-1;
#X msg 282 111 set \$1;
#X msg 255 166 /Users/jasch/Documents/_sounds/pana_01.aif;
#X obj 255 89 t b s;
#X obj 176 214 list length;
#X obj 150 258 list split;
#X obj 149 173 symbol2list /;
#X obj 149 193 t l l;
#X obj 176 234 - 1;
#X obj 178 281 t b s;
#X msg 205 305 set \$1;
#X msg 248 365 pana_01.aif;
#X obj 229 -3 inlet;
#X obj 181 403 outlet;
#X text 322 246 strips the file path ad only hand on the file name
\, careful: when using spatdif \, files should be stroed in the scene
with relative filepaths and stored together with the scene file;
#X connect 0 0 4 0;
#X connect 1 0 0 0;
#X connect 2 0 3 0;
#X connect 4 0 3 0;
#X connect 4 1 2 0;
#X connect 4 1 7 0;
#X connect 5 0 9 0;
#X connect 6 1 10 0;
#X connect 7 0 8 0;
#X connect 8 0 6 0;
#X connect 8 1 5 0;
#X connect 9 0 6 1;
#X connect 10 0 12 0;
#X connect 10 0 14 0;
#X connect 10 1 11 0;
#X connect 11 0 12 0;
#X connect 11 0 14 0;
#X connect 12 0 14 0;
#X connect 13 0 1 0;
#X restore 870 -1145 pd select_file;
#X obj 928 -918 bng 15 250 50 0 empty empty empty 17 7 0 10 -262144
-1 -1;
#X msg 931 -827 dump;
#X msg 928 -875 save \$1;
#X obj 852 -1145 bng 15 250 50 0 empty empty empty 17 7 0 10 -262144
-1 -1;
#N canvas 0 22 1330 795 select_file 0;
#X obj 255 66 openpanel;
#X obj 255 43 bng 15 250 50 0 empty empty empty 17 7 0 10 -262144 -1
-1;
#X msg 282 111 set \$1;
#X msg 255 166 /Users/jasch/Documents/_sounds/pana_02.aif;
#X obj 255 89 t b s;
#X obj 176 214 list length;
#X obj 150 258 list split;
#X obj 149 173 symbol2list /;
#X obj 149 193 t l l;
#X obj 176 234 - 1;
#X obj 178 281 t b s;
#X msg 205 305 set \$1;
#X msg 248 365 pana_02.aif;
#X obj 229 -3 inlet;
#X obj 181 403 outlet;
#X text 322 246 strips the file path ad only hand on the file name
\, careful: when using spatdif \, files should be stroed in the scene
with relative filepaths and stored together with the scene file;
#X connect 0 0 4 0;
#X connect 1 0 0 0;
#X connect 2 0 3 0;
#X connect 4 0 3 0;
#X connect 4 1 2 0;
#X connect 4 1 7 0;
#X connect 5 0 9 0;
#X connect 6 1 10 0;
#X connect 7 0 8 0;
#X connect 8 0 6 0;
#X connect 8 1 5 0;
#X connect 9 0 6 1;
#X connect 10 0 12 0;
#X connect 10 0 14 0;
#X connect 10 1 11 0;
#X connect 11 0 12 0;
#X connect 11 0 14 0;
#X connect 12 0 14 0;
#X connect 13 0 1 0;
#X restore 870 -1102 pd select_file;
#X obj 852 -1102 bng 15 250 50 0 empty empty empty 17 7 0 10 -262144
-1 -1;
#N canvas 0 22 1330 795 select_file 0;
#X obj 255 66 openpanel;
#X obj 255 43 bng 15 250 50 0 empty empty empty 17 7 0 10 -262144 -1
-1;
#X msg 282 111 set \$1;
#X msg 255 166 /Users/jasch/Documents/_sounds/pana_03.aif;
#X obj 255 89 t b s;
#X obj 176 214 list length;
#X obj 150 258 list split;
#X obj 149 173 symbol2list /;
#X obj 149 193 t l l;
#X obj 176 234 - 1;
#X obj 178 281 t b s;
#X msg 205 305 set \$1;
#X msg 248 365 pana_03.aif;
#X obj 229 -3 inlet;
#X obj 181 403 outlet;
#X text 322 246 strips the file path ad only hand on the file name
\, careful: when using spatdif \, files should be stroed in the scene
with relative filepaths and stored together with the scene file;
#X connect 0 0 4 0;
#X connect 1 0 0 0;
#X connect 2 0 3 0;
#X connect 4 0 3 0;
#X connect 4 1 2 0;
#X connect 4 1 7 0;
#X connect 5 0 9 0;
#X connect 6 1 10 0;
#X connect 7 0 8 0;
#X connect 8 0 6 0;
#X connect 8 1 5 0;
#X connect 9 0 6 1;
#X connect 10 0 12 0;
#X connect 10 0 14 0;
#X connect 10 1 11 0;
#X connect 11 0 12 0;
#X connect 11 0 14 0;
#X connect 12 0 14 0;
#X connect 13 0 1 0;
#X restore 870 -1059 pd select_file;
#X obj 852 -1059 bng 15 250 50 0 empty empty empty 17 7 0 10 -262144
-1 -1;
#N canvas 0 22 1330 795 select_file 0;
#X obj 255 66 openpanel;
#X obj 255 43 bng 15 250 50 0 empty empty empty 17 7 0 10 -262144 -1
-1;
#X msg 282 111 set \$1;
#X msg 255 166 /Users/jasch/Documents/_sounds/pana_05.aif;
#X obj 255 89 t b s;
#X obj 176 214 list length;
#X obj 150 258 list split;
#X obj 149 173 symbol2list /;
#X obj 149 193 t l l;
#X obj 176 234 - 1;
#X obj 178 281 t b s;
#X msg 205 305 set \$1;
#X msg 248 365 pana_05.aif;
#X obj 229 -3 inlet;
#X obj 181 403 outlet;
#X text 322 246 strips the file path ad only hand on the file name
\, careful: when using spatdif \, files should be stroed in the scene
with relative filepaths and stored together with the scene file;
#X connect 0 0 4 0;
#X connect 1 0 0 0;
#X connect 2 0 3 0;
#X connect 4 0 3 0;
#X connect 4 1 2 0;
#X connect 4 1 7 0;
#X connect 5 0 9 0;
#X connect 6 1 10 0;
#X connect 7 0 8 0;
#X connect 8 0 6 0;
#X connect 8 1 5 0;
#X connect 9 0 6 1;
#X connect 10 0 12 0;
#X connect 10 0 14 0;
#X connect 10 1 11 0;
#X connect 11 0 12 0;
#X connect 11 0 14 0;
#X connect 12 0 14 0;
#X connect 13 0 1 0;
#X restore 870 -1016 pd select_file;
#X obj 852 -1016 bng 15 250 50 0 empty empty empty 17 7 0 10 -262144
-1 -1;
#X msg 1384 -1158 reset;
#X obj 1384 -984 t b;
#X obj 1066 -1345 vsl 15 64 -1 1 0 0 empty empty empty 0 -9 0 10 -262144
-1 -1 0 1;
#X obj 1085 -1278 hsl 64 15 -1 1 0 0 empty empty empty -2 -8 0 10 -262144
-1 -1 0 1;
#X obj 1156 -1345 vsl 15 64 -1 1 0 0 empty empty empty 0 -9 0 10 -262144
-1 -1 0 1;
#X obj 1175 -1278 hsl 64 15 -1 1 0 0 empty empty empty -2 -8 0 10 -262144
-1 -1 0 1;
#X obj 1246 -1345 vsl 15 64 -1 1 0 0 empty empty empty 0 -9 0 10 -262144
-1 -1 0 1;
#X obj 1265 -1278 hsl 64 15 -1 1 0 0 empty empty empty -2 -8 0 10 -262144
-1 -1 0 1;
#X obj 1336 -1345 vsl 15 64 -1 1 0 0 empty empty empty 0 -9 0 10 -262144
-1 -1 0 1;
#X obj 1355 -1278 hsl 64 15 -1 1 0 0 empty empty empty -2 -8 0 10 -262144
-1 -1 0 1;
#N canvas 218 136 739 677 automated_trajectories 0;
#X obj 192 87 inlet;
#X obj 192 194 counter;
#X obj 192 244 * 0.001;
#X obj 315 219 sel 2000;
#X obj 315 170 bng 15 250 50 0 empty empty empty 17 7 0 10 -262144
-1 -1;
#X obj 513 383 - 1;
#X obj 211 381 * 0.333333;
#X obj 355 468 * 0.333333;
#X obj 197 277 t f f f;
#X obj 514 519 outlet;
#X obj 189 512 outlet;
#X obj 242 512 outlet;
#X obj 297 514 outlet;
#X obj 353 514 outlet;
#X obj 192 151 metro 10;
#X obj 189 331 - 1;
#X obj 289 331 * 0.5;
#X obj 301 364 t b f;
#X obj 301 421 - 0;
#X msg 295 394 1;
#X connect 0 0 14 0;
#X connect 1 0 2 0;
#X connect 1 0 3 0;
#X connect 2 0 8 0;
#X connect 3 0 4 0;
#X connect 4 0 1 2;
#X connect 5 0 9 0;
#X connect 6 0 11 0;
#X connect 7 0 13 0;
#X connect 8 0 15 0;
#X connect 8 1 16 0;
#X connect 8 2 5 0;
#X connect 14 0 1 0;
#X connect 15 0 6 0;
#X connect 15 0 10 0;
#X connect 16 0 17 0;
#X connect 17 0 19 0;
#X connect 17 1 18 1;
#X connect 18 0 7 0;
#X connect 18 0 12 0;
#X connect 19 0 18 0;
#X restore 879 -1295 pd automated_trajectories;
#X obj 879 -1312 tgl 15 0 empty empty empty 17 7 0 10 -262144 -1 -1
0 1;
#X obj 1026 -1364 f;
#N canvas 0 22 450 300 pak 0;
#X obj 31 -1243 pack;
#X obj 47 -1272 t b f;
#X obj 31 -1298 inlet;
#X obj 87 -1299 inlet;
#X obj 42 -1196 outlet;
#X connect 0 0 4 0;
#X connect 1 0 0 0;
#X connect 1 1 0 1;
#X connect 2 0 0 0;
#X connect 3 0 1 0;
#X restore 1066 -1231 pd pak;
#N canvas 0 22 450 300 pak 0;
#X obj 31 -1243 pack;
#X obj 47 -1272 t b f;
#X obj 31 -1298 inlet;
#X obj 87 -1299 inlet;
#X obj 42 -1196 outlet;
#X connect 0 0 4 0;
#X connect 1 0 0 0;
#X connect 1 1 0 1;
#X connect 2 0 0 0;
#X connect 3 0 1 0;
#X restore 1156 -1230 pd pak;
#N canvas 0 22 450 300 pak 0;
#X obj 31 -1243 pack;
#X obj 47 -1272 t b f;
#X obj 31 -1298 inlet;
#X obj 87 -1299 inlet;
#X obj 42 -1196 outlet;
#X connect 0 0 4 0;
#X connect 1 0 0 0;
#X connect 1 1 0 1;
#X connect 2 0 0 0;
#X connect 3 0 1 0;
#X restore 1246 -1230 pd pak;
#N canvas 0 22 450 300 pak 0;
#X obj 31 -1243 pack;
#X obj 47 -1272 t b f;
#X obj 31 -1298 inlet;
#X obj 87 -1299 inlet;
#X obj 42 -1196 outlet;
#X connect 0 0 4 0;
#X connect 1 0 0 0;
#X connect 1 1 0 1;
#X connect 2 0 0 0;
#X connect 3 0 1 0;
#X restore 1336 -1230 pd pak;
#X obj 928 -896 savepanel;
#N canvas 851 394 692 462 voice 0;
#X obj 66 22 inlet;
#X obj 186 22 inlet;
#X obj 439 21 inlet;
#X obj 186 355 spigot;
#X obj 93 293 tgl 15 0 empty empty empty 17 7 0 10 -262144 -1 -1 0
1;
#X obj 186 431 outlet;
#X obj 66 56 t b f;
#X obj 186 128 symbol;
#X msg 186 232 /spatdifcmd/media/setType voice1 file \, /spatdifcmd/media/setLocation
voice1 \$1;
#X msg 442 252 /spatdifcmd/setPosition voice1 \$1 \$2 0;
#X text 216 168 NB: hardocded names of entities: need to be adapted
for your own usecase;
#X obj 186 396 prepend list;
#X connect 0 0 6 0;
#X connect 1 0 7 0;
#X connect 2 0 9 0;
#X connect 3 0 11 0;
#X connect 4 0 3 1;
#X connect 6 0 7 0;
#X connect 6 1 4 0;
#X connect 7 0 8 0;
#X connect 8 0 3 0;
#X connect 9 0 3 0;
#X connect 11 0 5 0;
#X restore 1021 -1128 pd voice;
#N canvas 851 394 692 462 voice 0;
#X obj 66 22 inlet;
#X obj 186 22 inlet;
#X obj 439 21 inlet;
#X obj 186 355 spigot;
#X obj 93 293 tgl 15 0 empty empty empty 17 7 0 10 -262144 -1 -1 0
1;
#X obj 66 56 t b f;
#X obj 186 128 symbol;
#X text 216 168 NB: hardocded names of entities: need to be adapted
for your own usecase;
#X msg 186 232 /spatdifcmd/media/setType voice2 file \, /spatdifcmd/media/setLocation
voice2 \$1;
#X msg 442 252 /spatdifcmd/setPosition voice2 \$1 \$2 0;
#X obj 186 409 outlet;
#X obj 186 383 prepend list;
#X connect 0 0 5 0;
#X connect 1 0 6 0;
#X connect 2 0 9 0;
#X connect 3 0 11 0;
#X connect 4 0 3 1;
#X connect 5 0 6 0;
#X connect 5 1 4 0;
#X connect 6 0 8 0;
#X connect 8 0 3 0;
#X connect 9 0 3 0;
#X connect 11 0 10 0;
#X restore 1111 -1085 pd voice;
#N canvas 851 394 692 462 voice 0;
#X obj 66 22 inlet;
#X obj 186 22 inlet;
#X obj 439 21 inlet;
#X obj 186 355 spigot;
#X obj 93 293 tgl 15 0 empty empty empty 17 7 0 10 -262144 -1 -1 0
1;
#X obj 66 56 t b f;
#X obj 186 128 symbol;
#X text 216 168 NB: hardocded names of entities: need to be adapted
for your own usecase;
#X msg 186 232 /spatdifcmd/media/setType voice3 file \, /spatdifcmd/media/setLocation
voice3 \$1;
#X msg 442 252 /spatdifcmd/setPosition voice3 \$1 \$2 0;
#X obj 186 413 outlet;
#X obj 187 385 prepend list;
#X connect 0 0 5 0;
#X connect 1 0 6 0;
#X connect 2 0 9 0;
#X connect 3 0 11 0;
#X connect 4 0 3 1;
#X connect 5 0 6 0;
#X connect 5 1 4 0;
#X connect 6 0 8 0;
#X connect 8 0 3 0;
#X connect 9 0 3 0;
#X connect 11 0 10 0;
#X restore 1201 -1042 pd voice;
#N canvas 851 394 692 462 voice 0;
#X obj 66 22 inlet;
#X obj 186 22 inlet;
#X obj 439 21 inlet;
#X obj 186 355 spigot;
#X obj 93 293 tgl 15 0 empty empty empty 17 7 0 10 -262144 -1 -1 0
1;
#X obj 66 56 t b f;
#X obj 186 128 symbol;
#X text 216 168 NB: hardocded names of entities: need to be adapted
for your own usecase;
#X msg 186 232 /spatdifcmd/media/setType voice4 file \, /spatdifcmd/media/setLocation
voice4 \$1;
#X msg 442 252 /spatdifcmd/setPosition voice4 \$1 \$2 0;
#X obj 187 413 outlet;
#X obj 186 382 prepend list;
#X connect 0 0 5 0;
#X connect 1 0 6 0;
#X connect 2 0 9 0;
#X connect 3 0 11 0;
#X connect 4 0 3 1;
#X connect 5 0 6 0;
#X connect 5 1 4 0;
#X connect 6 0 8 0;
#X connect 8 0 3 0;
#X connect 9 0 3 0;
#X connect 11 0 10 0;
#X restore 1291 -999 pd voice;
#X obj 1021 -966 t l b;
#X obj 1021 -851 list trim;
#X text 901 -1315 start automated trajectories;
#X text 520 -1545 www.spatdif.org;
#X obj 27 -1421 cnv 12 750 25 empty empty Playback_of_a_SpatDIF_scene
20 12 0 11 -249661 -1 0;
#X obj 814 -1422 cnv 12 650 25 empty empty Recording_trajectories_with_media_content_as_a_SpatDIF_scene
20 12 0 11 -249661 -1 0;
#X text 661 -1555 (C) 2013 - 2014 Zurich University of the Arts \,
Institute for Computer Music and Sound Technology ICST \, licensed
under the terms of the "New BSD License";
#X msg 870 -1122;
#X msg 870 -1079;
#X msg 870 -1036;
#X msg 870 -993;
#X text 900 -1194 1 \, 2 \, 3 \, 4 trigger recording \, spacebar resets
time;
#X obj 1070 -798 cnv 15 15 15 empty empty empty 20 12 0 14 -261185
-66577 0;
#X obj 1003 -797 cnv 15 15 15 empty empty empty 20 12 0 14 -261185
-66577 0;
#X obj 186 -1265 cnv 15 15 15 empty empty empty 20 12 0 14 -261185
-66577 0;
#X obj 119 -1265 cnv 15 15 15 empty empty empty 20 12 0 14 -261185
-66577 0;
#X connect 0 0 34 0;
#X connect 0 0 47 0;
#X connect 1 0 10 0;
#X connect 2 0 1 0;
#X connect 3 0 0 0;
#X connect 7 0 27 0;
#X connect 7 0 28 0;
#X connect 8 0 4 0;
#X connect 8 1 5 0;
#X connect 8 2 6 0;
#X connect 9 0 46 0;
#X connect 10 0 0 0;
#X connect 11 0 71 0;
#X connect 12 0 11 0;
#X connect 13 0 72 0;
#X connect 14 0 13 0;
#X connect 15 0 17 0;
#X connect 16 0 15 0;
#X connect 26 0 7 0;
#X connect 27 0 8 0;
#X connect 28 0 29 0;
#X connect 28 0 31 0;
#X connect 29 0 12 0;
#X connect 29 1 14 0;
#X connect 29 2 30 0;
#X connect 31 0 16 0;
#X connect 34 0 35 0;
#X connect 35 0 38 0;
#X connect 36 0 0 0;
#X connect 38 0 39 0;
#X connect 39 0 40 0;
#X connect 40 0 41 0;
#X connect 40 1 41 1;
#X connect 41 0 9 0;
#X connect 42 0 40 0;
#X connect 44 0 51 0;
#X connect 44 1 54 0;
#X connect 44 2 57 0;
#X connect 44 3 60 0;
#X connect 44 4 63 0;
#X connect 44 5 66 0;
#X connect 44 6 69 0;
#X connect 45 0 0 0;
#X connect 48 0 26 0;
#X connect 48 0 73 0;
#X connect 49 0 44 0;
#X connect 50 0 52 0;
#X connect 51 0 50 0;
#X connect 53 0 55 0;
#X connect 54 0 53 0;
#X connect 56 0 58 0;
#X connect 57 0 56 0;
#X connect 59 0 61 0;
#X connect 60 0 59 0;
#X connect 62 0 64 0;
#X connect 63 0 62 0;
#X connect 65 0 67 0;
#X connect 66 0 65 0;
#X connect 68 0 70 0;
#X connect 69 0 68 0;
#X connect 78 0 79 0;
#X connect 78 1 80 0;
#X connect 78 2 81 0;
#X connect 78 3 82 0;
#X connect 78 4 103 0;
#X connect 79 0 121 0;
#X connect 80 0 122 0;
#X connect 81 0 123 0;
#X connect 82 0 124 0;
#X connect 83 0 85 0;
#X connect 84 0 87 0;
#X connect 85 0 86 0;
#X connect 86 0 84 0;
#X connect 88 0 87 0;
#X connect 89 0 87 0;
#X connect 90 0 88 0;
#X connect 92 0 132 0;
#X connect 92 0 121 1;
#X connect 93 0 120 0;
#X connect 94 0 87 0;
#X connect 95 0 87 0;
#X connect 96 0 92 0;
#X connect 97 0 133 0;
#X connect 97 0 122 1;
#X connect 98 0 97 0;
#X connect 99 0 134 0;
#X connect 99 0 123 1;
#X connect 100 0 99 0;
#X connect 101 0 135 0;
#X connect 101 0 124 1;
#X connect 102 0 101 0;
#X connect 103 0 104 0;
#X connect 104 0 83 0;
#X connect 105 0 116 0;
#X connect 106 0 116 1;
#X connect 107 0 117 0;
#X connect 108 0 117 1;
#X connect 109 0 118 0;
#X connect 110 0 118 1;
#X connect 111 0 119 0;
#X connect 112 0 119 1;
#X connect 113 0 106 0;
#X connect 113 1 108 0;
#X connect 113 2 110 0;
#X connect 113 3 112 0;
#X connect 113 4 115 0;
#X connect 114 0 113 0;
#X connect 115 0 111 0;
#X connect 115 0 109 0;
#X connect 115 0 107 0;
#X connect 115 0 105 0;
#X connect 116 0 121 2;
#X connect 117 0 122 2;
#X connect 118 0 123 2;
#X connect 119 0 124 2;
#X connect 120 0 95 0;
#X connect 121 0 125 0;
#X connect 122 0 125 0;
#X connect 123 0 125 0;
#X connect 124 0 125 0;
#X connect 125 0 126 0;
#X connect 125 1 83 1;
#X connect 126 0 87 0;
#X coords 0 863 1 862 85 60 0;
